<svg xmlns="http://www.w3.org/2000/svg" viewBox="0 0 677.18 214.67"><defs><style>.cls-1{fill:#f2f2f2;}</style></defs><g id="Camada_2" data-name="Camada 2"><g id="Camada_1-2" data-name="Camada 1"><path class="cls-1" d="M341.82,168.15c-36.61,0-69.14.09-99.32.09-15.09,0-23.12.95-33.26-8.4-7.36-6.79-10.62-18.17-10.62-33.26V52.66q0-24.24,11-35.22t35.22-11h97V38.81H247.36q-13.86,0-13.86,13.85l-.81,73.11a10.76,10.76,0,0,0,11.55,11.55c17.7,0,51.3-.35,66.45-.35v-38H270.22V71.2h71.6Z"/><path class="cls-1" d="M347.13,6.52h92.39q22.64,0,33.26,10.28t10.63,31.3q0,13.86-6,22.52a32.3,32.3,0,0,1-14.78,12.13q18.7,5.09,25.41,24.94a54.28,54.28,0,0,1,2.31,16.63q0,22.65-10.63,33.27t-33.26,10.62H347.13Zm99.49,46.2q0-13.86-13.86-13.86H383V71.2h49.79q13.86,0,13.86-13.86Zm2.14,64.67q0-13.85-13.86-13.85H383v32.33H434.9q13.86,0,13.86-13.86Z"/><path class="cls-1" d="M635.6,78.13l-32.34,57.74H570.93L538.59,78.13v90.08H497V6.52H540.9L587.1,92,633.29,6.52h43.89V168.21H635.6Z"/><path class="cls-1" d="M84.27,142.38h0a4.77,4.77,0,0,1-3.45-1.53L33.21,89.11a4.74,4.74,0,0,1,7-6.41l44.14,48,92.56-97a4.74,4.74,0,1,1,6.85,6.54l-96,100.69A4.75,4.75,0,0,1,84.27,142.38Z"/><path class="cls-1" d="M165.12,87.29a77.83,77.83,0,1,1-155.65,0A77.83,77.83,0,0,1,155.16,49.21L162,42.07a87.07,87.07,0,1,0,8.64,19.14l-7.63,8A78,78,0,0,1,165.12,87.29Z"/><circle class="cls-1" cx="180.26" cy="36.31" r="9.94"/><path class="cls-1" d="M109.92,193.27h-8.27v-3h20v3h-8.27v21.12h-3.42Z"/><path class="cls-1" d="M155.27,211.39v3h-17.5V190.27h17v3H141.21v7.4h12.1v2.93h-12.1v7.79Z"/><path class="cls-1" d="M177.41,213.06a11.89,11.89,0,0,1-4.57-4.41,12.93,12.93,0,0,1,0-12.64,11.73,11.73,0,0,1,4.59-4.41A13.38,13.38,0,0,1,184,190a13.66,13.66,0,0,1,5.16.95,10.5,10.5,0,0,1,4,2.81l-2.24,2.17a9,9,0,0,0-6.79-2.86,9.79,9.79,0,0,0-4.86,1.21,8.79,8.79,0,0,0-3.39,3.32,9.82,9.82,0,0,0,0,9.48,8.79,8.79,0,0,0,3.39,3.32,9.79,9.79,0,0,0,4.86,1.21,9,9,0,0,0,6.79-2.9l2.24,2.17a10.58,10.58,0,0,1-4,2.83,13.7,13.7,0,0,1-5.19,1A13.3,13.3,0,0,1,177.41,213.06Z"/><path class="cls-1" d="M231.22,190.27v24.12h-3.45V203.64H213.92v10.75h-3.45V190.27h3.45v10.37h13.85V190.27Z"/><path class="cls-1" d="M334,213.06a11.79,11.79,0,0,1-4.56-4.41,12.86,12.86,0,0,1,0-12.64A11.64,11.64,0,0,1,334,191.6a13.41,13.41,0,0,1,6.55-1.61,13.75,13.75,0,0,1,5.17.95,10.54,10.54,0,0,1,4,2.81l-2.24,2.17a9,9,0,0,0-6.78-2.86,9.74,9.74,0,0,0-4.86,1.21,8.75,8.75,0,0,0-3.4,3.32,9.82,9.82,0,0,0,0,9.48,8.75,8.75,0,0,0,3.4,3.32,9.74,9.74,0,0,0,4.86,1.21,9,9,0,0,0,6.78-2.9l2.24,2.17a10.58,10.58,0,0,1-4,2.83,13.63,13.63,0,0,1-5.19,1A13.3,13.3,0,0,1,334,213.06Z"/><path class="cls-1" d="M370.81,213.06a11.74,11.74,0,0,1-4.6-4.43,12.74,12.74,0,0,1,0-12.61,11.72,11.72,0,0,1,4.6-4.42,14.19,14.19,0,0,1,13.13,0,11.64,11.64,0,0,1,4.58,4.41,12.93,12.93,0,0,1,0,12.64,11.78,11.78,0,0,1-4.58,4.41,14.19,14.19,0,0,1-13.13,0Zm11.35-2.67a8.8,8.8,0,0,0,3.34-3.32,9.75,9.75,0,0,0,0-9.48,8.8,8.8,0,0,0-3.34-3.32,9.4,9.4,0,0,0-4.77-1.21,9.63,9.63,0,0,0-4.81,1.21,8.84,8.84,0,0,0-3.38,3.32,9.82,9.82,0,0,0,0,9.48,8.84,8.84,0,0,0,3.38,3.32,9.63,9.63,0,0,0,4.81,1.21A9.4,9.4,0,0,0,382.16,210.39Z"/><path class="cls-1" d="M428.59,190.27v24.12h-2.82l-14.47-18v18h-3.45V190.27h2.83l14.47,18v-18Z"/><path class="cls-1" d="M453,193.27h-8.27v-3h20v3h-8.27v21.12H453Z"/><path class="cls-1" d="M497,214.39l-5.2-7.41c-.64.05-1.15.07-1.52.07h-6v7.34h-3.44V190.27h9.4a11.19,11.19,0,0,1,7.38,2.24,7.6,7.6,0,0,1,2.69,6.17,8,8,0,0,1-1.38,4.75,7.81,7.81,0,0,1-3.93,2.86l5.72,8.1Zm-1.82-11.68a5.57,5.57,0,0,0,0-8.05,7.8,7.8,0,0,0-5-1.39h-5.86v10.85h5.86A7.74,7.74,0,0,0,495.17,202.71Z"/><path class="cls-1" d="M522.63,213.06a11.81,11.81,0,0,1-4.6-4.43A12.74,12.74,0,0,1,518,196a11.78,11.78,0,0,1,4.6-4.42,14.19,14.19,0,0,1,13.13,0,11.64,11.64,0,0,1,4.58,4.41,12.93,12.93,0,0,1,0,12.64,11.78,11.78,0,0,1-4.58,4.41,14.19,14.19,0,0,1-13.13,0ZM534,210.39a8.83,8.83,0,0,0,3.35-3.32,9.82,9.82,0,0,0,0-9.48,8.83,8.83,0,0,0-3.35-3.32,9.4,9.4,0,0,0-4.77-1.21,9.63,9.63,0,0,0-4.81,1.21,8.74,8.74,0,0,0-3.37,3.32,9.75,9.75,0,0,0,0,9.48,8.74,8.74,0,0,0,3.37,3.32,9.63,9.63,0,0,0,4.81,1.21A9.4,9.4,0,0,0,534,210.39Z"/><path class="cls-1" d="M559.67,190.27h3.45v21.12h13.06v3H559.67Z"/><path class="cls-1" d="M291.82,214.53l-3.31-3.41a10.41,10.41,0,0,1-8,3.24,10.57,10.57,0,0,1-4.14-.77,6.68,6.68,0,0,1-2.85-2.15,5.16,5.16,0,0,1-1-3.15,6,6,0,0,1,1.37-3.85,16.41,16.41,0,0,1,4.63-3.58,13.91,13.91,0,0,1-2.35-3,5.66,5.66,0,0,1-.65-2.64,4.61,4.61,0,0,1,1.64-3.68,6.53,6.53,0,0,1,4.39-1.4,6.11,6.11,0,0,1,4.06,1.26,4.3,4.3,0,0,1,1.5,3.48,4.78,4.78,0,0,1-1.2,3.18,16,16,0,0,1-4.12,3.12l6.54,6.75a15.19,15.19,0,0,0,1.6-4.6l2,.61a16.05,16.05,0,0,1-2.11,5.49l3.4,3.51Zm-4.74-4.88-7.19-7.39a14.52,14.52,0,0,0-3.9,2.9,4.44,4.44,0,0,0-1.07,2.89,3.7,3.7,0,0,0,1.58,3.12,6.88,6.88,0,0,0,4.18,1.18A8.24,8.24,0,0,0,287.08,209.65Zm-8.3-16.83a3,3,0,0,0-1,2.35,4,4,0,0,0,.54,2,14.62,14.62,0,0,0,2.15,2.59,16.64,16.64,0,0,0,3.58-2.55,3.34,3.34,0,0,0,1-2.32,2.72,2.72,0,0,0-.92-2.16,3.76,3.76,0,0,0-2.56-.8A4.07,4.07,0,0,0,278.78,192.82Z"/><circle class="cls-1" cx="36.13" cy="85.3" r="9.94"/></g></g></svg>